<svg width="56" height="56" viewBox="0 0 56 56" fill="none" xmlns="http://www.w3.org/2000/svg">
<g id="Frame 29">
<rect width="56" height="56" fill="white"/>
<g id="Group 7550">
<path id="Vector 2" d="M36.0022 4.17236C27.6022 2.57236 21.8355 12.5057 20.0022 17.6724L23.5022 17.6724C23.9022 15.6724 25.6689 13.5057 26.5022 12.6724C30.5022 8.67236 33.843 6.34076 36.5022 9C38.5022 11 36.6689 15.6724 35.0022 18.6724H38.5022C44.1022 8.67236 39.1689 4.83903 36.0022 4.17236Z" fill="white" stroke="black"/>
<path id="Vector 1" d="M43.0803 18.1724C42.2803 17.7724 24.747 17.0057 16.0803 16.6724C15.6803 16.6724 15.247 18.0057 15.0803 18.6724C12.6803 26.2724 10.747 40.1724 10.0803 46.1724C9.68031 48.1724 10.9136 49.0057 11.5803 49.1724C12.7803 49.5724 25.4136 51.0057 31.5803 51.6724C33.9803 52.4724 35.9136 49.0057 36.5803 47.1724C36.9803 46.3724 40.747 32.5057 42.5803 25.6724C43.5803 21.1724 44.0803 18.6724 43.0803 18.1724Z" fill="#FFE684" stroke="black"/>
<path id="Vector 5" d="M33.0022 24.0427C33.1379 24.3472 33.5193 24.6424 34.1562 26.6031" stroke="black" stroke-linecap="round"/>
<path id="Vector 7" d="M31.0022 37C30.5022 38.5 30.5022 38.5 30.0022 39.5" stroke="black" stroke-linecap="round"/>
<path id="Vector 34" d="M20.0022 28C19.6689 28.6667 19.0022 30.1 19.0022 30.5" stroke="black" stroke-linecap="round" stroke-linejoin="round"/>
<path id="Vector 33" d="M36.5022 47.5C35.7022 47.9 19.0022 45.6667 10.5022 44.5C9.3022 47.7 10.5022 49.1667 11.5022 49.5C12.7022 49.9 24.0022 51.3333 29.5022 52C34.2391 52.5742 35.8356 49.6667 36.5022 47.5Z" fill="white" stroke="black" stroke-linecap="round" stroke-linejoin="round"/>
</g>
</g>
</svg>
