<svg width="82" height="42" viewBox="0 0 82 42" fill="none" xmlns="http://www.w3.org/2000/svg">
<g id="Frame 39">
<g id="Group 7556">
<g id="Vector 65">
<path d="M12.6008 14.5851C15.2847 5.41512 17.5149 4.66054 18.0406 4.53603C26.5397 2.52325 32.2357 6.63905 33.5686 9.27323C35.3579 13.7464 30.5865 18.2195 27.9772 19.897C32.4503 19.897 34.3052 22.4975 34.8644 23.9886C36.5418 29.5799 32.4361 34.1236 29.0812 36.0807C24.8876 38.8764 17.633 38.7215 14.8373 38.6283C9.46952 38.181 7.38207 35.6462 7.00932 34.4347C6.78566 32.6455 10.6438 20.4561 12.6008 14.5851Z" fill="#111827"/>
<path d="M18.0406 4.53603L18.1019 4.79476L18.0406 4.53603ZM12.6008 14.5851L12.8532 14.6692L12.8559 14.6598L12.6008 14.5851ZM7.00932 34.4347L6.74549 34.4677L6.74837 34.4907L6.75519 34.5129L7.00932 34.4347ZM14.8373 38.6283L14.8152 38.8936L14.8284 38.894L14.8373 38.6283ZM29.0812 36.0807L28.9472 35.851L28.9404 35.855L28.9337 35.8594L29.0812 36.0807ZM34.8644 23.9886L35.119 23.9122L35.1165 23.9036L35.1133 23.8952L34.8644 23.9886ZM27.9772 19.897L27.8334 19.6733C27.7342 19.7371 27.6888 19.8587 27.7221 19.9719C27.7553 20.0851 27.8592 20.1629 27.9772 20.1629V19.897ZM33.5686 9.27323L33.8155 9.17448L33.8111 9.16362L33.8059 9.15318L33.5686 9.27323ZM18.0406 4.53603L17.9793 4.27731C17.6443 4.35665 16.9034 4.61981 15.9132 6.0146C14.9301 7.39934 13.6914 9.91225 12.3456 14.5104L12.6008 14.5851L12.8559 14.6598C14.194 10.088 15.4124 7.6386 16.3468 6.32243C17.2741 5.01631 17.9111 4.83993 18.1019 4.79476L18.0406 4.53603ZM12.6008 14.5851L12.3485 14.501C11.3694 17.4384 9.91461 21.9566 8.73227 25.9653C8.14121 27.9694 7.61736 29.849 7.25505 31.3412C7.07396 32.0871 6.93237 32.7396 6.84299 33.2642C6.75544 33.7781 6.71206 34.2003 6.74549 34.4677L7.00932 34.4347L7.27315 34.4017C7.25066 34.2218 7.27892 33.8717 7.3672 33.3535C7.45364 32.8462 7.59206 32.207 7.7718 31.4667C8.13113 29.9868 8.65218 28.1166 9.24231 26.1158C10.4224 22.1148 11.8751 17.6028 12.853 14.6692L12.6008 14.5851ZM7.00932 34.4347L6.75519 34.5129C7.16951 35.8595 9.37602 38.44 14.8152 38.8933L14.8373 38.6283L14.8594 38.3633C9.56301 37.922 7.59462 35.4329 7.26344 34.3565L7.00932 34.4347ZM14.8373 38.6283L14.8284 38.894C16.2288 38.9407 18.7572 39.0034 21.4645 38.7021C24.1651 38.4015 27.0784 37.7354 29.2287 36.3019L29.0812 36.0807L28.9337 35.8594C26.8904 37.2216 24.0796 37.876 21.4056 38.1736C18.7383 38.4704 16.2415 38.4091 14.8462 38.3626L14.8373 38.6283ZM29.0812 36.0807L29.2152 36.3103C30.9244 35.3132 32.8254 33.6581 34.0885 31.5333C35.3547 29.4032 35.9832 26.7927 35.119 23.9122L34.8644 23.9886L34.6097 24.065C35.423 26.7758 34.8373 29.2328 33.6314 31.2616C32.4222 33.2957 30.5929 34.891 28.9472 35.851L29.0812 36.0807ZM34.8644 23.9886L35.1133 23.8952C34.5227 22.3201 32.5809 19.6311 27.9772 19.6311V19.897V20.1629C32.3198 20.1629 34.0878 22.6749 34.6154 24.0819L34.8644 23.9886ZM27.9772 19.897L28.121 20.1206C29.4472 19.268 31.3214 17.7073 32.6416 15.784C33.9607 13.8622 34.7574 11.5291 33.8155 9.17448L33.5686 9.27323L33.3218 9.37198C34.1692 11.4905 33.4747 13.6306 32.2032 15.483C30.9327 17.3339 29.1165 18.8485 27.8334 19.6733L27.9772 19.897ZM33.5686 9.27323L33.8059 9.15318C32.4095 6.39375 26.5801 2.24043 17.9793 4.27731L18.0406 4.53603L18.1019 4.79476C26.4992 2.80606 32.0618 6.88435 33.3314 9.39328L33.5686 9.27323Z" fill="#111827"/>
</g>
<g id="Vector 66">
<path d="M19.6178 13.4737C21.6974 13.2587 24.0808 11.0055 24.8925 9.7935C23.9166 12.1494 25.3447 14.6843 26.4525 15.5767C24.4274 15.5446 20.6149 17.9889 18.9992 19.2401C20.9785 16.591 19.7404 15.2157 19.6178 13.4737Z" fill="#FFE684"/>
<path d="M18.0406 27.143C19.8749 27.143 22.4462 25.3994 23.5 24.5C22.7741 26.6623 23.7385 29.8395 24.5 30.5C23.2534 29.6651 18.8782 31.7602 17.211 33.0513C18.2678 31.8329 18.0406 27.143 18.0406 27.143Z" fill="#FFE684"/>
<path d="M19.6178 13.4737C21.6974 13.2587 24.0808 11.0055 24.8925 9.7935C23.9166 12.1494 25.3447 14.6843 26.4525 15.5767C24.4274 15.5446 20.6149 17.9889 18.9992 19.2401C20.9785 16.591 19.7404 15.2157 19.6178 13.4737Z" stroke="#111827" stroke-width="0.531766"/>
<path d="M18.0406 27.143C19.8749 27.143 22.4462 25.3994 23.5 24.5C22.7741 26.6623 23.7385 29.8395 24.5 30.5C23.2534 29.6651 18.8782 31.7602 17.211 33.0513C18.2678 31.8329 18.0406 27.143 18.0406 27.143Z" stroke="#111827" stroke-width="0.531766"/>
</g>
<path id="Vector 67" d="M44.8535 10.845C45.905 7.80125 47.5948 7.11088 50.1109 7.39045C55.3684 7.97461 56.4198 8.74205 56.9456 10.845C56.9456 10.845 57.9592 15.9131 59.4888 19.5805C59.5431 19.7107 59.6623 19.8289 59.7879 19.7647C60.9422 19.1747 62.8624 11.1256 64.3506 7.01108C65.9162 3.87988 72.1716 5.61983 74.315 7.39046C76.418 8.96768 74.315 15.4466 72.5 21.5C70.1619 29.2979 66.5872 34.4749 64.3506 35.5C58.0417 38.3916 51.4086 25.5324 51.6882 26.0916C51.9118 26.5389 50.8406 32.0806 50.3149 34.1836C49.7321 36.5147 49.013 37.4632 48.2119 37.8638C47.1604 38.3895 42.7964 37.8638 40.9326 37.8638C36.9674 37.6579 37.4931 34.5035 38.0188 32.4005C39.0703 27.6688 43.0829 15.9705 44.8535 10.845Z" fill="#111827" stroke="#111827" stroke-width="0.531766" stroke-linejoin="round"/>
<path id="Vector 68" d="M70.6149 12.4222C70.6149 12.7727 70.5097 13.7892 70.0891 15.051" stroke="#39BF9B" stroke-linecap="round"/>
<path id="Vector 72" d="M12.7832 30.2975C12.7832 30.648 12.678 31.6644 12.2574 32.9262" stroke="#39BF9B" stroke-linecap="round"/>
<path id="Vector 69" d="M62.139 25.04C62.3066 25.3479 62.7001 26.2909 62.9339 27.6003" stroke="#39BF9B" stroke-linecap="round"/>
<path id="Vector 74" d="M20.707 7.51439C20.4739 7.77617 19.7195 8.4654 18.5663 9.12812" stroke="#39BF9B" stroke-linecap="round"/>
<path id="Vector 73" d="M29.543 26.0916C29.7105 26.3994 30.1041 27.3424 30.3379 28.6518" stroke="#39BF9B" stroke-linecap="round"/>
<path id="Vector 71" d="M44.3261 30.2975C44.3538 30.6469 44.3294 31.6685 44.0098 32.9596" stroke="#39BF9B" stroke-linecap="round"/>
<path id="Vector 70" d="M49.3255 14.5252C49.6278 14.7026 50.4513 15.3076 51.3267 16.309" stroke="#39BF9B" stroke-linecap="round"/>
</g>
</g>
</svg>
