<svg width="56" height="56" viewBox="0 0 56 56" fill="none" xmlns="http://www.w3.org/2000/svg">
<rect width="56" height="56" fill="white"/>
<path d="M10.001 17.6768C6.58897 19.239 6.76992 22.2333 7.28689 23.5351C7.50545 25.0974 9.70435 27.8312 10.7765 29.0029C12.3274 31.5024 15.5585 29.2633 16.9802 27.8312C15.1191 35.9548 15.1123 42.1704 15.5 43.4723C15.5 47.2216 33.0208 46.5138 40 45.4723C44.5 44.9723 41.1488 34.0801 40.6319 29.0029C41.5624 30.2527 42.829 30.5651 43.346 30.5651C45.2071 30.8775 46.7063 28.6123 47.2233 27.4407C50.015 23.0664 48.9035 20.671 47.9988 20.0201C47.6886 19.0828 41.1488 15.2033 37.9177 13.3807C36.0566 11.506 33.2924 13.6912 32 14.4723C28.8981 16.8156 23.9594 16.1146 22.0207 13.7712C21.2453 12.8339 20.3405 12.5996 20.0821 12.5996C18.2209 12.2871 12.5859 15.8542 10.001 17.6768Z" fill="#A5CEFF" stroke="black" stroke-linecap="round" stroke-linejoin="round"/>
<path d="M36.5 21.9724C36.8333 22.6391 37.5 24.0724 37.5 24.4724" stroke="black" stroke-linecap="round" stroke-linejoin="round"/>
<path d="M24 29.4724C23.6667 30.1391 23 31.5724 23 31.9724" stroke="black" stroke-linecap="round" stroke-linejoin="round"/>
<path d="M32 37.4724C32.1667 37.9724 32.5 39.1724 32.5 39.9724" stroke="black" stroke-linecap="round" stroke-linejoin="round"/>
<path d="M15.463 28.9724C13.463 28.1724 9.96304 21.6391 8.46304 18.4724L6.96304 19.4724C4.16304 21.8724 8.12971 27.1391 10.463 29.4724C12.1403 31.1496 14.2964 29.9724 15.463 28.9724Z" fill="white" stroke="black" stroke-linecap="round" stroke-linejoin="round"/>
<path d="M41 29.4724C43 28.6724 46 22.6391 47.5 19.4724L49 20.4724C51.5 22.9724 47.7456 28.642 45 30.4724C43.5 31.4724 42.1667 30.4724 41 29.4724Z" fill="white" stroke="black" stroke-linecap="round" stroke-linejoin="round"/>
<path d="M21.5 12.4724C19.5 11.4724 18.3333 13.139 17.5 13.4724C18.3 17.8724 24.5 18.9724 27.5 19.4724C31.5 19.9724 36.1667 16.4724 38 14.4724C38.8 13.6724 38.5 13.4724 37.0001 12.4724L37 12.4724C35.8 11.2724 33.5 12.639 32.5 13.4724C28.1 17.4724 24 15.139 22.5 13.4724C22 12.9724 21.8333 12.639 21.5 12.4724Z" fill="white" stroke="black" stroke-linecap="round" stroke-linejoin="round"/>
</svg>
