<svg width="56" height="56" viewBox="0 0 56 56" fill="none" xmlns="http://www.w3.org/2000/svg">
<rect width="56" height="56" fill="white"/>
<path d="M13.2833 28.6635C12.7035 24.3759 16.0878 23.2671 17.8291 23.9906C19.1687 24.5473 20.1157 23.3082 20.7409 22.7572C25.3381 18.9625 27.3611 24.0817 27.4331 26.6841C27.3632 33.4106 22.3554 36.0469 20.5032 35.4577C14.9288 33.9726 13.3045 30.2 13.2833 28.6635Z" fill="#B3E34F" stroke="black" stroke-linecap="round" stroke-linejoin="round"/>
<path d="M36.5523 39.4269C40.5643 37.8071 39.8515 34.3179 38.3606 33.1635C37.2135 32.2754 37.8209 30.839 37.99 30.023C39.0099 24.1499 33.5607 24.9277 31.2641 26.154C25.4552 29.546 25.645 35.2022 27.0742 36.5195C31.1252 40.6267 35.207 40.1694 36.5523 39.4269Z" fill="#B3E34F" stroke="black" stroke-linecap="round" stroke-linejoin="round"/>
<path d="M9.38283 35.8794C6.15174 38.7569 7.99916 41.8015 9.79199 42.3857C11.1713 42.8352 11.0837 44.3922 11.1997 45.2174C12.2195 51.0905 17.0875 48.5212 18.8361 46.5925C23.1614 41.4406 21.0759 36.1796 19.2863 35.4212C14.0878 32.9201 10.399 34.7268 9.38283 35.8794Z" fill="#B3E34F" stroke="black" stroke-linecap="round" stroke-linejoin="round"/>
<path d="M34.4985 43.6976C35.8419 47.8104 32.713 49.5112 30.8698 49.1135C29.4517 48.8076 28.7437 50.197 28.2281 50.8517C24.3904 55.4131 21.4776 50.7425 20.9375 48.1958C19.7935 41.5669 24.2439 38.0709 26.172 38.3165C31.9228 38.7723 34.2007 42.1902 34.4985 43.6976Z" fill="#B3E34F" stroke="black" stroke-linecap="round" stroke-linejoin="round"/>
<path d="M39.1097 4.25775C41.2256 3.79796 42.8704 3.97066 44.1116 4.63764C45.3603 5.30884 46.1228 6.43786 46.553 7.7226C47.3497 10.1023 47.0511 13.1398 46.5188 15.3437L46.4095 15.7734C46.4064 15.7849 46.4026 15.7963 46.3987 15.8076C45.319 18.9118 43.2235 20.5886 41.0481 21.4062C38.9043 22.2118 36.6888 22.183 35.2776 21.9052C32.8157 21.5822 31.2115 20.7341 30.2249 19.6533L30.0354 19.4335C29.0096 18.1746 28.7463 16.5978 28.8958 15.0449C29.0452 13.4934 29.6084 11.9194 30.2952 10.5927L30.5003 10.2148C32.6869 6.37601 36.7978 4.66973 39.1097 4.25678V4.25775ZM39.7483 6.87982C38.8376 6.77181 37.8309 6.90773 36.7591 7.39935L36.5432 7.50287C33.6605 8.94282 31.5537 12.0626 31.6653 15.332L31.677 15.5595C31.761 16.6951 32.1924 17.7864 33.2307 18.5156C34.3187 19.2794 35.972 19.5723 38.3216 19.2519C38.3372 19.2498 38.3531 19.2467 38.3684 19.2431L38.7141 19.1454C39.5438 18.8763 40.5271 18.3143 41.4222 17.5351C42.4502 16.6401 43.4037 15.4232 43.8802 13.9579L43.9632 13.6738C44.3368 12.2448 44.0758 10.7017 43.3782 9.45307C42.6796 8.20294 41.5155 7.20225 40.0462 6.92475L39.7483 6.87982Z" fill="white"/>
<path d="M39.1097 4.25775H38.6097C38.6097 4.409 38.6781 4.55212 38.7959 4.64704C38.9136 4.74195 39.068 4.77847 39.2158 4.74635L39.1097 4.25775ZM44.1116 4.63764L44.3483 4.19723L44.3483 4.1972L44.1116 4.63764ZM46.553 7.7226L47.0271 7.56386L47.0271 7.56383L46.553 7.7226ZM46.5188 15.3437L47.0034 15.467L47.0049 15.4611L46.5188 15.3437ZM46.4095 15.7734L46.8923 15.9033L46.894 15.8967L46.4095 15.7734ZM46.3987 15.8076L46.871 15.9718L46.871 15.9716L46.3987 15.8076ZM41.0481 21.4062L41.224 21.8742L41.224 21.8742L41.0481 21.4062ZM35.2776 21.9052L35.3742 21.4146C35.3637 21.4126 35.3532 21.4108 35.3427 21.4095L35.2776 21.9052ZM30.2249 19.6533L29.8462 19.9798C29.8493 19.9833 29.8524 19.9869 29.8556 19.9903L30.2249 19.6533ZM30.0354 19.4335L29.6477 19.7495L29.6568 19.76L30.0354 19.4335ZM28.8958 15.0449L28.3981 14.9969L28.3981 14.997L28.8958 15.0449ZM30.2952 10.5927L29.8556 10.3542L29.8512 10.3629L30.2952 10.5927ZM30.5003 10.2148L30.0657 9.96725L30.0608 9.97631L30.5003 10.2148ZM39.1097 4.25678H39.6097C39.6097 4.10879 39.5441 3.9684 39.4306 3.8734C39.3171 3.7784 39.1674 3.73854 39.0217 3.76457L39.1097 4.25678ZM39.7483 6.87982L39.8229 6.38541C39.8177 6.38463 39.8124 6.38392 39.8072 6.3833L39.7483 6.87982ZM36.7591 7.39935L36.5506 6.94482L36.5428 6.94853L36.7591 7.39935ZM36.5432 7.50287L36.327 7.05199L36.3198 7.05557L36.5432 7.50287ZM31.6653 15.332L31.1655 15.349L31.166 15.3577L31.6653 15.332ZM31.677 15.5595L31.1776 15.5852L31.1784 15.5964L31.677 15.5595ZM33.2307 18.5156L32.9434 18.9248L32.9434 18.9248L33.2307 18.5156ZM38.3216 19.2519L38.3891 19.7473L38.3893 19.7473L38.3216 19.2519ZM38.3684 19.2431L38.4826 19.7299C38.4899 19.7282 38.4971 19.7263 38.5044 19.7243L38.3684 19.2431ZM38.7141 19.1454L38.8501 19.6266C38.8562 19.6249 38.8623 19.623 38.8684 19.6211L38.7141 19.1454ZM41.4222 17.5351L41.7505 17.9122L41.7505 17.9122L41.4222 17.5351ZM43.8802 13.9579L44.3556 14.1126C44.3572 14.1078 44.3587 14.103 44.3601 14.0981L43.8802 13.9579ZM43.9632 13.6738L44.4431 13.814C44.4444 13.8094 44.4457 13.8048 44.4469 13.8003L43.9632 13.6738ZM43.3782 9.45307L43.8147 9.20918L43.8147 9.20915L43.3782 9.45307ZM40.0462 6.92475L40.139 6.43343C40.1329 6.43229 40.1268 6.43126 40.1207 6.43034L40.0462 6.92475ZM39.1097 4.25775L39.2158 4.74635C41.2577 4.30265 42.7713 4.48504 43.8749 5.07808L44.1116 4.63764L44.3483 4.1972C42.9694 3.45628 41.1935 3.29327 39.0035 3.76916L39.1097 4.25775ZM44.1116 4.63764L43.8749 5.07804C44.9817 5.67301 45.6769 6.68095 46.0789 7.88137L46.553 7.7226L47.0271 7.56383C46.5687 6.19478 45.7388 4.94466 44.3483 4.19723L44.1116 4.63764ZM46.553 7.7226L46.0789 7.88133C46.8315 10.1295 46.5567 13.0573 46.0328 15.2263L46.5188 15.3437L47.0049 15.4611C47.5456 13.2223 47.8679 10.0752 47.0271 7.56386L46.553 7.7226ZM46.5188 15.3437L46.0343 15.2204L45.9249 15.65L46.4095 15.7734L46.894 15.8967L47.0034 15.467L46.5188 15.3437ZM46.4095 15.7734L45.9266 15.6434L45.9264 15.6435L46.3987 15.8076L46.871 15.9716C46.8767 15.9554 46.8848 15.9313 46.8923 15.9033L46.4095 15.7734ZM46.3987 15.8076L45.9265 15.6433C44.9012 18.5911 42.9256 20.1664 40.8722 20.9382L41.0481 21.4062L41.224 21.8742C43.5215 21.0107 45.7368 19.2325 46.871 15.9718L46.3987 15.8076ZM41.0481 21.4062L40.8722 20.9381C38.8301 21.7056 36.7111 21.6778 35.3742 21.4146L35.2776 21.9052L35.181 22.3958C36.6666 22.6882 38.9785 22.7181 41.224 21.8742L41.0481 21.4062ZM35.2776 21.9052L35.3427 21.4095C32.9642 21.0974 31.4811 20.2878 30.5942 19.3162L30.2249 19.6533L29.8556 19.9903C30.9418 21.1803 32.6672 22.0671 35.2126 22.401L35.2776 21.9052ZM30.2249 19.6533L30.6036 19.3268L30.4141 19.107L30.0354 19.4335L29.6568 19.76L29.8462 19.9798L30.2249 19.6533ZM30.0354 19.4335L30.423 19.1177C29.5067 17.9932 29.252 16.5633 29.3935 15.0928L28.8958 15.0449L28.3981 14.997C28.2407 16.6324 28.5124 18.356 29.6478 19.7494L30.0354 19.4335ZM28.8958 15.0449L29.3935 15.0928C29.5351 13.6224 30.0724 12.1107 30.7392 10.8226L30.2952 10.5927L29.8512 10.3629C29.1444 11.7281 28.5553 13.3644 28.3981 14.9969L28.8958 15.0449ZM30.2952 10.5927L30.7347 10.8312L30.9397 10.4533L30.5003 10.2148L30.0608 9.97631L29.8557 10.3542L30.2952 10.5927ZM30.5003 10.2148L30.9347 10.4623C33.0235 6.79527 36.9752 5.14596 39.1976 4.74899L39.1097 4.25678L39.0217 3.76457C36.6205 4.1935 32.3503 5.95675 30.0658 9.96731L30.5003 10.2148ZM39.1097 4.25678H38.6097V4.25775H39.1097H39.6097V4.25678H39.1097ZM39.7483 6.87982L39.8072 6.3833C38.8008 6.26394 37.7018 6.41685 36.5506 6.94488L36.7591 7.39935L36.9675 7.85383C37.96 7.39861 38.8745 7.27969 39.6894 7.37634L39.7483 6.87982ZM36.7591 7.39935L36.5428 6.94853L36.327 7.05205L36.5432 7.50287L36.7595 7.9537L36.9753 7.85018L36.7591 7.39935ZM36.5432 7.50287L36.3198 7.05557C33.2847 8.57164 31.0465 11.8601 31.1656 15.349L31.6653 15.332L32.165 15.3149C32.0609 12.2651 34.0364 9.314 36.7667 7.95017L36.5432 7.50287ZM31.6653 15.332L31.166 15.3577L31.1777 15.5852L31.677 15.5595L32.1764 15.5338L32.1647 15.3063L31.6653 15.332ZM31.677 15.5595L31.1784 15.5964C31.27 16.8344 31.7483 18.0855 32.9434 18.9248L33.2307 18.5156L33.5181 18.1064C32.6364 17.4872 32.2521 16.5558 32.1757 15.5226L31.677 15.5595ZM33.2307 18.5156L32.9434 18.9248C34.1798 19.7928 35.983 20.0754 38.3891 19.7473L38.3216 19.2519L38.254 18.7565C35.961 19.0692 34.4576 18.766 33.518 18.1064L33.2307 18.5156ZM38.3216 19.2519L38.3893 19.7473C38.4227 19.7427 38.4542 19.7366 38.4826 19.7299L38.3684 19.2431L38.2543 18.7563L38.2539 18.7565L38.3216 19.2519ZM38.3684 19.2431L38.5044 19.7243L38.8501 19.6266L38.7141 19.1454L38.5782 18.6643L38.2325 18.7619L38.3684 19.2431ZM38.7141 19.1454L38.8684 19.6211C39.7727 19.3278 40.8137 18.7277 41.7505 17.9122L41.4222 17.5351L41.0938 17.158C40.2405 17.9009 39.315 18.4249 38.5599 18.6698L38.7141 19.1454ZM41.4222 17.5351L41.7505 17.9122C42.8279 16.9741 43.8443 15.685 44.3556 14.1126L43.8802 13.9579L43.4047 13.8033C42.963 15.1615 42.0724 16.306 41.0938 17.158L41.4222 17.5351ZM43.8802 13.9579L44.3601 14.0981L44.4431 13.814L43.9632 13.6738L43.4832 13.5336L43.4002 13.8178L43.8802 13.9579ZM43.9632 13.6738L44.4469 13.8003C44.8566 12.2336 44.5686 10.5584 43.8147 9.20918L43.3782 9.45307L42.9417 9.69695C43.5831 10.8449 43.8171 12.256 43.4794 13.5473L43.9632 13.6738ZM43.3782 9.45307L43.8147 9.20915C43.0594 7.85758 41.7825 6.74385 40.139 6.43343L40.0462 6.92475L39.9534 7.41606C41.2484 7.66066 42.2998 8.54831 42.9417 9.69698L43.3782 9.45307ZM40.0462 6.92475L40.1207 6.43034L39.8229 6.38541L39.7483 6.87982L39.6738 7.37423L39.9716 7.41915L40.0462 6.92475Z" fill="black"/>
<path d="M31.021 21.8813C32.7092 17.6847 35.2415 18.2676 36.2966 19.0836C36.0152 19.3633 33.1312 20.8322 37 22.2311C32.4982 24.7491 30.7865 22.9305 31.021 21.8813Z" fill="white" stroke="black" stroke-linecap="round" stroke-linejoin="round"/>
<path d="M27.021 23.0081C28.7092 19.1392 30.8688 19.142 31.9239 19.8942C31.6425 20.1522 29.8136 22.4734 33 23.3305C28.4982 25.6518 26.7865 23.9753 27.021 23.0081Z" fill="white" stroke="black" stroke-linecap="round" stroke-linejoin="round"/>
<path d="M32 23.8545C28.6717 25.0508 27 23.7268 27 22.8545C26.191 24.7237 25.0903 28.037 27.8639 28.3361C30.6374 28.6351 32.1156 25.5991 32 23.8545Z" fill="white" stroke="black" stroke-linecap="round" stroke-linejoin="round"/>
<path d="M21.3572 28.9114C21.3745 29.6565 21.4558 31.2352 21.6429 31.5887" stroke="black" stroke-linecap="round" stroke-linejoin="round"/>
<path d="M26.8838 42C26.9011 42.7451 26.9824 44.3238 27.1695 44.6774" stroke="black" stroke-linecap="round" stroke-linejoin="round"/>
<path d="M31.0608 34.3948C31.7499 34.1107 33.2279 33.5499 33.6268 33.5789" stroke="black" stroke-linecap="round" stroke-linejoin="round"/>
<path d="M17.3114 39.6065C15.7009 40.8934 15.0001 40.9877 15.0001 40.9877" stroke="black" stroke-linecap="round"/>
</svg>
