<svg width="36" height="36" viewBox="0 0 36 36" fill="none" xmlns="http://www.w3.org/2000/svg">
<path d="M6.4969 11.4354C6.21132 5.99372 8.87684 6.52722 10.2096 5.99372C19.0246 3.52369 26.0683 6.21573 28.7777 8.03743C28.963 8.16202 29.0911 8.34795 29.15 8.56331C30.5174 13.5553 32.3992 23.6359 27.9163 29.6809C26.7739 30.9613 14.3031 28.0804 8.21046 26.48C5.69725 25.7117 5.83053 23.5991 6.21132 22.6388C7.58216 19.8219 6.97289 13.9962 6.4969 11.4354Z" fill="#FFE684" stroke="black" stroke-linecap="round" stroke-linejoin="round"/>
<path d="M10.7458 10C10.6492 10.2406 10.5302 11.8772 10.4639 12.0422" stroke="black" stroke-linecap="round" stroke-linejoin="round"/>
<path d="M26.7458 12C26.6492 12.2406 26.5302 13.8772 26.4639 14.0422" stroke="black" stroke-linecap="round" stroke-linejoin="round"/>
<path d="M10.7458 15C10.6492 15.2406 10.5302 16.8772 10.4639 17.0422" stroke="black" stroke-linecap="round" stroke-linejoin="round"/>
<path d="M27.7458 18C27.6492 18.2406 27.5302 19.8772 27.4639 20.0422" stroke="black" stroke-linecap="round" stroke-linejoin="round"/>
<path d="M9.74585 21C9.64916 21.2406 9.53022 22.8772 9.46392 23.0422" stroke="black" stroke-linecap="round" stroke-linejoin="round"/>
<path d="M26.7458 24C26.6492 24.2406 26.5302 25.8772 26.4639 26.0422" stroke="black" stroke-linecap="round" stroke-linejoin="round"/>
<path d="M13 24.433C13.2245 24.5626 14.8281 24.9111 14.9821 25" stroke="black" stroke-linecap="round" stroke-linejoin="round"/>
<path d="M20 26.433C20.2245 26.5626 21.8281 26.9111 21.9821 27" stroke="black" stroke-linecap="round" stroke-linejoin="round"/>
<path d="M22 8.43298C22.2245 8.56261 23.8281 8.91108 23.9821 8.99997" stroke="black" stroke-linecap="round" stroke-linejoin="round"/>
<path d="M15 8.4967C15.2576 8.5264 16.8675 8.20871 17.0441 8.22907" stroke="black" stroke-linecap="round" stroke-linejoin="round"/>
</svg>
