<svg width="56" height="56" viewBox="0 0 56 56" fill="none" xmlns="http://www.w3.org/2000/svg">
<g id="Frame 30">
<rect width="56" height="56" fill="white"/>
<g id="Group 7551">
<path id="Vector 8" d="M13.0001 45.1626C12.6001 43.9626 12.1667 22.4959 12.0001 10.6626C11.9886 9.86259 13.5001 8.1626 14.5001 7.66258C16.4886 6.46258 31.9953 7.16258 39.5001 7.66258C42.5001 8.1626 42.5001 10.6626 42.5001 11.1626C42.5001 11.7283 43.6667 31.3293 44.0001 41.1626C43.6001 45.9626 42 46.5 41.0001 46.6626C40.0001 46.8252 26.8334 48.4959 20.5001 48.6626C15.3001 49.4626 13.3334 46.6626 13.0001 45.1626Z" fill="#BD9F7F" stroke="black"/>
<path id="Vector 9" d="M16.0662 15.5945C16.0662 13.0783 18.0547 12.4493 19.5462 12.4493C19.9439 12.5182 31.1461 12.478 36.449 12C39.929 12.4493 38.9347 15.5945 38.9347 16.0438C38.9347 16.4032 38.6033 21.5852 38.4375 24.1313C38.3206 25.9285 35.9518 25.9285 34.4604 25.9285H22.0319C16.5633 26.3778 17.5576 24.5806 17.0604 24.1313C16.6627 23.7718 16.2319 18.2903 16.0662 15.5945Z" fill="#7E6B57" stroke="black"/>
<path id="Vector 11" d="M17.1374 32.6958C17.1374 30.1797 18.1249 30.4493 19.6062 30.4493C20.0012 30.5182 31.1271 30.478 36.3938 30C39.8501 30.4493 38.8626 33.5945 38.8626 34.0438C38.8626 34.4032 38.5334 38.6866 38.3688 41.2327C37.8751 43.0299 35.9001 43.4792 34.4188 43.4792C33.6288 43.4792 25.8604 43.9285 22.0749 43.9285C16.6436 44.3778 17.6312 42.5806 17.1374 42.1313C16.7424 41.7718 17.302 35.3917 17.1374 32.6958Z" fill="#7E6B57" stroke="black"/>
<path id="Vector 12" d="M30 34C30.3333 34.4762 31 35.5429 31 36" stroke="black" stroke-linecap="round"/>
<path id="Vector 13" d="M21.7626 39C21.8164 39.5788 21.998 40.8235 22.2937 41.1721" stroke="black" stroke-linecap="round"/>
<path id="Vector 14" d="M22.6847 16.084C22.3048 16.524 21.5335 17.5176 21.4872 17.9724" stroke="black" stroke-linecap="round"/>
<path id="Vector 15" d="M34.6259 26C33.7164 25.5556 34.0118 19.6045 34.2013 16.6415C34.7697 15.5304 38.1805 16.0859 38.7489 16.6415C39.2037 17.0859 38.9384 22.0882 38.7489 24.6808C38.7489 25.5697 35.9523 26 34.6259 26Z" fill="white" stroke="black" stroke-linecap="round"/>
<path id="Vector 16" d="M29.4705 17.7911C30.008 16.7808 32.8299 16.9492 34.1737 17.1597L34.1737 26H29.4705C28.933 23.9793 29.2465 19.6855 29.4705 17.7911Z" fill="white" stroke="black" stroke-linecap="round"/>
<path id="Vector 17" d="M33.9999 34.5C34.5374 33.4897 37.1562 33.2895 38.4999 33.5C38.4999 33.5 38.9998 41 37.9999 42C36.9999 43 34.3437 43.5 32.9999 43.5C32.4624 41.4794 33.776 36.3944 33.9999 34.5Z" fill="white" stroke="black" stroke-linecap="round"/>
</g>
</g>
</svg>
