<svg width="36" height="36" viewBox="0 0 36 36" fill="none" xmlns="http://www.w3.org/2000/svg">
<path d="M12.2087 3.46688C10.0527 3.88966 9.873 5.40463 10.0527 6.10927V17.7927C10.4839 21.175 13.4664 22.0205 14.9037 22.0205C17.0597 22.0205 17.4338 25.2213 17.5988 26.1914C17.7945 27.3426 17.7755 28.2471 17.6629 28.9247C17.4911 29.9577 16.4587 30.3787 15.4465 30.6472C13.8332 31.0751 12.3451 32.0033 11.6697 32.5331C12.1009 33.3787 21.5515 32.8854 26.2229 32.5331C25.8498 31.4356 23.2881 30.8471 21.6735 30.5943C21.2261 30.5243 20.7393 30.462 20.4521 30.1119C19.7214 29.2206 19.7548 27.216 19.7548 26.1914C19.7548 23.301 21.0125 22.1967 21.9108 22.0205C26.2229 21.4921 26.5 19 26.7619 17.7927C26.8899 17.2025 26.9416 10.1609 26.7619 6.10927C26.5 4.5 26.0432 3.46688 25.6839 3.46688C24.3903 2.62132 16.1614 3.11456 12.2087 3.46688Z" fill="#D6DAFF" stroke="black" stroke-linecap="round" stroke-linejoin="round"/>
<path d="M23.5 8C23.5 8.16667 23.5 9.5 23.5 10.5M21.5 14.5C21.5 14.5 22 16 22 16.5" stroke="black" stroke-linecap="round" stroke-linejoin="round"/>
</svg>
