<svg width="36" height="36" viewBox="0 0 36 36" fill="none" xmlns="http://www.w3.org/2000/svg">
<path d="M17.6347 1.00102C18.2878 1.0161 19.0595 1.20637 19.54 1.87504L19.62 1.99907C19.8026 2.31548 19.9549 2.81182 20.0029 3.45024C20.0587 4.19464 19.9765 5.16574 19.6122 6.34868C19.5413 6.57873 19.3162 6.72573 19.0771 6.69828L15.5976 6.29496C15.4356 6.27608 15.2932 6.17872 15.2157 6.0352C14.9054 5.45931 14.5447 4.53658 14.5038 3.64164C14.4833 3.1902 14.5423 2.71192 14.7626 2.2852C14.9895 1.846 15.3689 1.49707 15.9159 1.29399L16.08 1.23832C16.4862 1.10718 17.0566 0.987691 17.6347 1.00102ZM17.5458 2.71098C17.2849 2.67158 16.9949 2.72347 16.7314 2.91801L16.62 3.00981C16.5239 3.09899 16.4177 3.21771 16.3339 3.35356C16.2567 3.47887 16.159 3.68355 16.1796 3.92387C16.2046 4.21355 16.3868 4.42771 16.6278 4.54496C16.8402 4.64812 17.1051 4.68364 17.3954 4.68364C17.5929 4.68353 17.9573 4.63485 18.2128 4.36821C18.3565 4.21803 18.4452 4.01661 18.4491 3.78325C18.4518 3.61882 18.4126 3.45556 18.3456 3.29692L18.2704 3.13969C18.2574 3.11558 18.2422 3.09194 18.2255 3.07035L18.1698 3.00981L18.0556 2.91703C17.9256 2.82537 17.7504 2.74193 17.5458 2.71098Z" fill="white"/>
<path d="M17.6347 1.00102L17.6462 0.501152L17.6462 0.501152L17.6347 1.00102ZM19.54 1.87504L19.96 1.60383C19.9555 1.59686 19.9508 1.59001 19.946 1.58328L19.54 1.87504ZM19.62 1.99907L20.0531 1.74915C20.0489 1.74194 20.0446 1.73484 20.0401 1.72785L19.62 1.99907ZM20.0029 3.45024L20.5014 3.41283L20.5014 3.41277L20.0029 3.45024ZM19.6122 6.34868L20.09 6.49597L20.0901 6.49581L19.6122 6.34868ZM19.0771 6.69828L19.0195 7.19496L19.0201 7.19502L19.0771 6.69828ZM15.5976 6.29496L15.5397 6.7916L15.54 6.79164L15.5976 6.29496ZM15.2157 6.0352L14.7756 6.27238L14.7758 6.27271L15.2157 6.0352ZM14.5038 3.64164L14.0043 3.6644L14.0043 3.66448L14.5038 3.64164ZM14.7626 2.2852L14.3184 2.05574L14.3184 2.05578L14.7626 2.2852ZM15.9159 1.29399L15.7553 0.820498C15.7508 0.822019 15.7463 0.823603 15.7419 0.82525L15.9159 1.29399ZM16.08 1.23832L15.9264 0.762455L15.9194 0.764834L16.08 1.23832ZM17.5458 2.71098L17.6206 2.21661L17.6205 2.21659L17.5458 2.71098ZM16.7314 2.91801L16.4344 2.51574C16.4272 2.52105 16.4202 2.52655 16.4133 2.53224L16.7314 2.91801ZM16.62 3.00981L16.3019 2.62404C16.2944 2.63024 16.2871 2.63666 16.2799 2.64329L16.62 3.00981ZM16.3339 3.35356L15.9084 3.09104L15.9082 3.09137L16.3339 3.35356ZM16.1796 3.92387L15.6814 3.96657L15.6815 3.96686L16.1796 3.92387ZM16.6278 4.54496L16.4091 4.9946L16.4094 4.99471L16.6278 4.54496ZM17.3954 4.68364V5.18364L17.3957 5.18364L17.3954 4.68364ZM18.2128 4.36821L18.5738 4.71413L18.5741 4.71386L18.2128 4.36821ZM18.4491 3.78325L18.9491 3.79178L18.9491 3.79144L18.4491 3.78325ZM18.3456 3.29692L18.8063 3.10256C18.8033 3.09537 18.8001 3.08824 18.7967 3.08119L18.3456 3.29692ZM18.2704 3.13969L18.7215 2.92396C18.718 2.91666 18.7143 2.90945 18.7105 2.90233L18.2704 3.13969ZM18.2255 3.07035L18.6209 2.76433C18.6123 2.75316 18.6032 2.74236 18.5936 2.73196L18.2255 3.07035ZM18.1698 3.00981L18.5379 2.67141C18.5215 2.65356 18.5038 2.63693 18.485 2.62165L18.1698 3.00981ZM18.0556 2.91703L18.3708 2.52888C18.362 2.52174 18.3529 2.5149 18.3437 2.50838L18.0556 2.91703ZM17.6347 1.00102L17.6231 1.50089C18.2075 1.51438 18.7864 1.68322 19.1339 2.16681L19.54 1.87504L19.946 1.58328C19.3325 0.729524 18.3682 0.517821 17.6462 0.501152L17.6347 1.00102ZM19.54 1.87504L19.1199 2.14626L19.2 2.27028L19.62 1.99907L20.0401 1.72785L19.96 1.60383L19.54 1.87504ZM19.62 1.99907L19.187 2.24898C19.3222 2.48324 19.4602 2.90149 19.5043 3.4877L20.0029 3.45024L20.5014 3.41277C20.4496 2.72216 20.2831 2.14771 20.0531 1.74915L19.62 1.99907ZM20.0029 3.45024L19.5043 3.48765C19.5549 4.16339 19.4822 5.07184 19.1344 6.20154L19.6122 6.34868L20.0901 6.49581C20.4707 5.25964 20.5624 4.22589 20.5014 3.41283L20.0029 3.45024ZM19.6122 6.34868L19.1344 6.20138L19.1341 6.20155L19.0771 6.69828L19.0201 7.19502C19.4982 7.24991 19.9482 6.95616 20.09 6.49597L19.6122 6.34868ZM19.0771 6.69828L19.1346 6.20161L15.6551 5.79829L15.5976 6.29496L15.54 6.79164L19.0195 7.19496L19.0771 6.69828ZM15.5976 6.29496L15.6555 5.79833L15.6557 5.79769L15.2157 6.0352L14.7758 6.27271C14.9299 6.55835 15.2141 6.75364 15.5397 6.7916L15.5976 6.29496ZM15.2157 6.0352L15.6559 5.79801C15.366 5.26001 15.0396 4.41223 15.0033 3.61881L14.5038 3.64164L14.0043 3.66448C14.0499 4.66092 14.4448 5.65861 14.7756 6.27238L15.2157 6.0352ZM14.5038 3.64164L15.0033 3.61889C14.9852 3.22201 15.0395 2.83878 15.2069 2.51461L14.7626 2.2852L14.3184 2.05578C14.045 2.58507 13.9813 3.15839 14.0043 3.6644L14.5038 3.64164ZM14.7626 2.2852L15.2069 2.51466C15.3745 2.19006 15.6554 1.92406 16.09 1.76273L15.9159 1.29399L15.7419 0.82525C15.0825 1.07008 14.6044 1.50194 14.3184 2.05574L14.7626 2.2852ZM15.9159 1.29399L16.0766 1.76748L16.2406 1.71181L16.08 1.23832L15.9194 0.764834L15.7553 0.820498L15.9159 1.29399ZM16.08 1.23832L16.2336 1.71414C16.6014 1.59541 17.1148 1.48917 17.6232 1.50089L17.6347 1.00102L17.6462 0.501152C16.9984 0.486216 16.371 0.618958 15.9264 0.762507L16.08 1.23832ZM17.5458 2.71098L17.6205 2.21659C17.2376 2.15877 16.812 2.23703 16.4344 2.51574L16.7314 2.91801L17.0283 3.32028C17.1778 3.2099 17.3322 3.18439 17.4712 3.20537L17.5458 2.71098ZM16.7314 2.91801L16.4133 2.53224L16.3019 2.62404L16.62 3.00981L16.9381 3.39558L17.0495 3.30378L16.7314 2.91801ZM16.62 3.00981L16.2799 2.64329C16.159 2.75549 16.0211 2.90833 15.9084 3.09104L16.3339 3.35356L16.7594 3.61608C16.8143 3.5271 16.8888 3.44249 16.9601 3.37633L16.62 3.00981ZM16.3339 3.35356L15.9082 3.09137C15.8083 3.25349 15.6474 3.56975 15.6814 3.96657L16.1796 3.92387L16.6778 3.88117C16.6706 3.79735 16.7051 3.70424 16.7596 3.61575L16.3339 3.35356ZM16.1796 3.92387L15.6815 3.96686C15.7244 4.46441 16.0417 4.81588 16.4091 4.9946L16.6278 4.54496L16.8465 4.09533C16.7319 4.03954 16.6848 3.96268 16.6778 3.88088L16.1796 3.92387ZM16.6278 4.54496L16.4094 4.99471C16.7214 5.14629 17.0749 5.18364 17.3954 5.18364V4.68364V4.18364C17.1353 4.18364 16.959 4.14995 16.8463 4.09522L16.6278 4.54496ZM17.3954 4.68364L17.3957 5.18364C17.6442 5.18351 18.1781 5.12713 18.5738 4.71413L18.2128 4.36821L17.8518 4.02228C17.7969 4.0796 17.7233 4.12089 17.6351 4.14804C17.5458 4.17556 17.4568 4.1836 17.3952 4.18364L17.3954 4.68364ZM18.2128 4.36821L18.5741 4.71386C18.8039 4.47365 18.9429 4.15219 18.9491 3.79178L18.4491 3.78325L17.9492 3.77471C17.9474 3.88104 17.9091 3.96241 17.8515 4.02255L18.2128 4.36821ZM18.4491 3.78325L18.9491 3.79144C18.9532 3.5415 18.8933 3.30866 18.8063 3.10256L18.3456 3.29692L17.8849 3.49127C17.9319 3.60246 17.9505 3.69614 17.9492 3.77505L18.4491 3.78325ZM18.3456 3.29692L18.7967 3.08119L18.7215 2.92396L18.2704 3.13969L17.8194 3.35542L17.8946 3.51265L18.3456 3.29692ZM18.2704 3.13969L18.7105 2.90233C18.6853 2.85568 18.6554 2.80888 18.6209 2.76433L18.2255 3.07035L17.8301 3.37638L17.8304 3.37705L18.2704 3.13969ZM18.2255 3.07035L18.5936 2.73196L18.5379 2.67141L18.1698 3.00981L17.8018 3.34821L17.8574 3.40875L18.2255 3.07035ZM18.1698 3.00981L18.485 2.62165L18.3708 2.52888L18.0556 2.91703L17.7404 3.30519L17.8547 3.39797L18.1698 3.00981ZM18.0556 2.91703L18.3437 2.50838C18.1605 2.37923 17.9135 2.26092 17.6206 2.21661L17.5458 2.71098L17.471 3.20535C17.5872 3.22293 17.6906 3.2715 17.7675 3.32569L18.0556 2.91703Z" fill="black"/>
<path d="M12.3061 6.62852C11.9578 6.62852 11 8.5 11 9L25.5 9.5C25.8483 9.12057 24.2064 7.26091 23.6259 6.62852C18.7497 5.49021 14.0476 6.15422 12.3061 6.62852Z" fill="#BFC1CC" stroke="black" stroke-linecap="round" stroke-linejoin="round"/>
<path d="M10.6186 29.938C9.47285 25.8646 10.1639 15.1645 10.7341 9.5096C10.776 9.09319 11.0746 8.74998 11.4832 8.6594C16.4383 7.56092 21.7632 8.01478 24.8123 8.68278C25.173 8.76181 25.453 9.03981 25.5223 9.40254C26.4099 14.0441 25.8684 24.3716 25.4362 29.565C25.4112 29.8658 25.2547 30.1432 24.9786 30.2653C22.4244 31.395 15.3047 30.9842 11.3971 30.5667C11.0309 30.5276 10.7184 30.2926 10.6186 29.938Z" fill="#BFC1CC" stroke="black" stroke-linecap="round" stroke-linejoin="round"/>
<path d="M12.75 32.857C12.05 32.857 11.2917 31.2227 11 30.4055C14.9375 30.8141 22.0833 30.8141 25 29.9969C24.5625 31.2227 23.25 32.4484 22.8125 32.857C22.565 33.0881 16.25 32.9932 12.75 32.857Z" fill="#BFC1CC" stroke="black" stroke-linecap="round" stroke-linejoin="round"/>
<path d="M20.7458 22C20.6492 22.2406 20.5302 23.8772 20.4639 24.0422" stroke="black" stroke-linecap="round" stroke-linejoin="round"/>
<path d="M22 14C22 14.2593 22.5 15.8222 22.5 16" stroke="black" stroke-linecap="round" stroke-linejoin="round"/>
</svg>
