<svg width="36" height="36" viewBox="0 0 36 36" fill="none" xmlns="http://www.w3.org/2000/svg">
<path d="M14.4687 1.1997C13.681 1.1997 13.424 1.81339 13.3955 2.48067C13.3686 3.11094 12.9561 3.72736 12.3284 3.79013C10.2773 3.99525 9.57951 4.27382 9.38299 5.0425C8.92066 6.85088 8.92069 9.94019 9.15185 11.8239C9.15185 13.6841 9.53839 16.5521 9.78132 18.3546L9.78773 18.4021C9.82467 18.6763 9.97447 18.9216 10.2012 19.0799L10.66 19.4004C11.0356 19.6627 11.0133 20.2258 10.6181 20.4576C10.4258 20.5705 10.3077 20.7767 10.3077 20.9997V23.2752C10.3077 23.6053 10.4745 23.9132 10.7511 24.0935C11.2491 24.4181 11.3441 25.1086 10.9522 25.5557L10.5557 26.008C10.3959 26.1904 10.3077 26.4247 10.3077 26.6672V30.8119C10.1228 32.6203 11.6177 33.5245 12.3882 33.7505C13.6827 34.293 19.9949 34.3014 23 34C24.9099 34 25.63 32.3854 25.7747 31.6267C25.7919 31.5365 25.8147 31.4484 25.8409 31.3604C26.1189 30.4267 25.9762 28.0768 25.8373 26.6817C25.8122 26.43 25.6889 26.1995 25.4967 26.0351L24.9219 25.5433C24.4488 25.1384 24.5236 24.3861 25.0672 24.0824C25.3706 23.9128 25.5484 23.5828 25.5231 23.2361L25.3673 21.1029C25.3465 20.8188 25.1679 20.5704 24.9052 20.4603L24.7679 20.4028C24.2965 20.2052 24.2116 19.5734 24.6142 19.2584C24.7764 19.1316 24.8711 18.9371 24.8711 18.7313V10.6937C25.0561 6.17274 24.3317 4.43971 23.9465 4.13831C23.6804 3.74804 22.3616 3.64632 21.2121 3.64802C20.5888 3.64893 20.099 3.11267 20.0449 2.49177C19.9755 1.69425 19.7183 1.30663 19.5543 1.1997C18.8146 0.838024 15.8557 1.049 14.4687 1.1997Z" fill="#B8DFFF" stroke="black" stroke-linecap="round" stroke-linejoin="round"/>
<path d="M10 15.4575C14.7324 15.2288 24.3324 15.366 24.8732 15M11 20C15.1315 20 24.062 19.9869 24.4225 19.8039M11 25C14.9812 25.1525 24.062 25.2026 24.4225 24.8365" stroke="black" stroke-linecap="round" stroke-linejoin="round"/>
<path d="M21.5 7C21.5 7.25926 22 8.82222 22 9" stroke="black" stroke-linecap="round" stroke-linejoin="round"/>
<path d="M20 11C19.8494 11.4468 19.5483 12.3851 19.5483 12.5638" stroke="black" stroke-linecap="round" stroke-linejoin="round"/>
</svg>
