<svg width="36" height="36" viewBox="0 0 36 36" fill="none" xmlns="http://www.w3.org/2000/svg">
<path d="M8.97959 20.3168C8.97959 17.8083 8.56175 11.3704 8.22741 6.72084C8.09738 4.91252 9.186 3.21052 10.9492 2.7887C16.2692 1.51602 20.7312 2.00852 23.2664 2.69772C24.1794 2.94592 24.8046 3.6634 24.8852 4.60606C25.0859 6.95288 25.1429 11.4561 25.1429 13.9467C25.1429 13.6375 26.7678 12.4952 28.0953 11.6256C28.7226 11.2146 29.484 11.0425 30.0783 11.4999C30.4082 11.7537 30.7535 12.0781 31.0715 12.4061C31.7035 13.0581 31.798 13.9106 31.2064 14.5994C30.5505 15.3629 29.6368 16.3109 29.0612 16.8867C27.102 18.4548 26.6122 24.4002 26.6122 27.177C26.8865 30.1954 26.2169 31.6292 25.5104 32.2178C25.0448 32.6057 24.3913 32.7086 23.7899 32.8032L23.7448 32.8103C21.0465 33.236 14.3547 32.8519 10.9388 32.5671C8.58776 32.5671 8.65306 24.4002 8.97959 20.3168Z" fill="#BD9F7F" stroke="black" stroke-linecap="round" stroke-linejoin="round"/>
<path d="M12 3C12.6667 6.5 13.5 21.7 13.5 26.5M16.5 33C16.7162 30.4051 16.9886 23.1808 16.9348 17.8796C16.9234 16.7529 16.9253 16.7653 17.0662 17.8832C17.6071 22.1727 18.4671 27.2009 19.401 29.2902C19.4644 29.432 19.5003 29.5807 19.4987 29.736C19.4861 30.9542 19.3745 33 19 33M18 2.5C18.3333 5.16667 18.5 8.7 18.5 9.5" stroke="black" stroke-linecap="round" stroke-linejoin="round"/>
<path d="M22 11C22 11.2593 22.5 13.3222 22.5 13.5" stroke="black" stroke-linecap="round" stroke-linejoin="round"/>
<path d="M24.7458 19C24.6492 19.2406 24.5302 20.8772 24.4639 21.0422" stroke="black" stroke-linecap="round" stroke-linejoin="round"/>
</svg>
